# xmcd
# Track frame offsets:
# 150
# 16094
# 34598
# 46879
# 67875
# 83905
# 103758
# 120241
# 133828
# 150773
# 170249
# 183431
# 199983
# 217871
# 233189
#
# Disc length: 3282 seconds
# Revision: 0
# Processed by: cddbd v1.5.1PL0 Copyright (c) Steve Scherf et al.
# Submitted via: VisiTrax 2.9.10.228 - For more info visit www.synapsa.com
#
DISCID=bc0cd00f
DTITLE=McEntire, Reba - CB90053
DYEAR=1900
DGENRE=Karaoke
TTITLE0=Little Girl
TTITLE1=Ring On Her Finger, Time On Her Hands
TTITLE2=Can't Even Get The Blues No More
TTITLE3=On My Own
TTITLE4=Red Roses
TTITLE5=Silly Me
TTITLE6=Today All Over Again
TTITLE7=You're The First Time I Thought About
TTITLE8=Till Love Comes Again
TTITLE9=Starting Over Again
TTITLE10=I'm Not That Lonely Yet
TTITLE11=Love Will Find It's Way To You
TTITLE12=New Fool At An Old Game
TTITLE13=I Know How He Feels
TTITLE14=Oklahoma Swing
EXTD=
EXTT0=
EXTT1=
EXTT2=
EXTT3=
EXTT4=
EXTT5=
EXTT6=
EXTT7=
EXTT8=
EXTT9=
EXTT10=
EXTT11=
EXTT12=
EXTT13=
EXTT14=
PLAYORDER=
